<svg xmlns="http://www.w3.org/2000/svg" fill="none" viewBox="0 0 221 83">
  <path d="M34.868 19H.012v18.637H25.55a9.319 9.319 0 009.319-9.318V19zm-8.726 41H0V41.363h17.972a8.17 8.17 0 018.17 8.17V60zm13.073-41H61v18.637H48.534a9.318 9.318 0 01-9.319-9.318V19zM61 50.681A9.319 9.319 0 0151.681 60h-21.18v-3.388c0-8.422 6.828-15.25 15.25-15.25h5.93A9.319 9.319 0 0161 50.683z" fill="#FE5737"/>
  <path d="M81.116 50.136h11.648V57h-20.54V20.496h8.892v29.64zm33.153 7.228c-3.432 0-6.586-.797-9.464-2.392-2.842-1.595-5.113-3.813-6.812-6.656-1.664-2.877-2.496-6.101-2.496-9.672 0-3.57.832-6.777 2.496-9.62 1.699-2.843 3.97-5.061 6.812-6.656 2.878-1.595 6.032-2.392 9.464-2.392 3.432 0 6.57.797 9.412 2.392 2.878 1.595 5.131 3.813 6.76 6.656 1.664 2.843 2.496 6.05 2.496 9.62 0 3.57-.832 6.795-2.496 9.672-1.664 2.843-3.917 5.061-6.76 6.656-2.842 1.595-5.98 2.392-9.412 2.392zm0-8.112c2.912 0 5.235-.97 6.968-2.912 1.768-1.941 2.652-4.507 2.652-7.696 0-3.224-.884-5.79-2.652-7.696-1.733-1.941-4.056-2.912-6.968-2.912-2.946 0-5.304.953-7.072 2.86-1.733 1.907-2.6 4.49-2.6 7.748 0 3.224.867 5.807 2.6 7.748 1.768 1.907 4.126 2.86 7.072 2.86zm47.847-17.212a6.468 6.468 0 00-2.86-2.756c-1.213-.659-2.652-.988-4.316-.988-2.877 0-5.183.953-6.916 2.86-1.733 1.872-2.6 4.385-2.6 7.54 0 3.363.901 5.997 2.704 7.904 1.837 1.872 4.351 2.808 7.54 2.808 2.184 0 4.021-.555 5.512-1.664 1.525-1.11 2.635-2.704 3.328-4.784h-11.284v-6.552h19.344v8.268c-.659 2.219-1.785 4.281-3.38 6.188-1.56 1.907-3.553 3.45-5.98 4.628-2.427 1.179-5.165 1.768-8.216 1.768-3.605 0-6.829-.78-9.672-2.34a17.269 17.269 0 01-6.604-6.604c-1.56-2.808-2.34-6.015-2.34-9.62 0-3.605.78-6.812 2.34-9.62 1.595-2.843 3.796-5.044 6.604-6.604 2.808-1.595 6.015-2.392 9.62-2.392 4.368 0 8.043 1.057 11.024 3.172 3.016 2.115 5.009 5.044 5.98 8.788h-9.828zm32.642 25.324c-3.432 0-6.587-.797-9.464-2.392-2.843-1.595-5.114-3.813-6.812-6.656-1.664-2.877-2.496-6.101-2.496-9.672 0-3.57.832-6.777 2.496-9.62 1.698-2.843 3.969-5.061 6.812-6.656 2.877-1.595 6.032-2.392 9.464-2.392 3.432 0 6.569.797 9.412 2.392 2.877 1.595 5.13 3.813 6.76 6.656 1.664 2.843 2.496 6.05 2.496 9.62 0 3.57-.832 6.795-2.496 9.672-1.664 2.843-3.918 5.061-6.76 6.656-2.843 1.595-5.98 2.392-9.412 2.392zm0-8.112c2.912 0 5.234-.97 6.968-2.912 1.768-1.941 2.652-4.507 2.652-7.696 0-3.224-.884-5.79-2.652-7.696-1.734-1.941-4.056-2.912-6.968-2.912-2.947 0-5.304.953-7.072 2.86-1.734 1.907-2.6 4.49-2.6 7.748 0 3.224.866 5.807 2.6 7.748 1.768 1.907 4.125 2.86 7.072 2.86z" fill="#555"/>
</svg>
