<svg xmlns="http://www.w3.org/2000/svg" version="1.1" x="0" y="0" viewBox="0 0 48 34" xml:space="preserve">
  <path d="M.4 1.1h7.1v19c0 3 1.4 4.8 2.5 5.6-1.2 1-4.7 1.9-7.3-.3C1.1 24.1.4 22 .4 20V1.1zm44.3 15.8v-2h2.2v-7h-2.4C43.6 3.7 39.8.5 35.4.5c-5.2 0-9.3 4.2-9.3 9.3v16.4c1.5.2 3.2 0 4.7-1.3s2.2-3.4 2.2-5.4V19h3.5v-7H33V9.8c0-1.3 1.1-2.4 2.4-2.4 1.3 0 2.4 1.1 2.4 2.4v7c0 5.2 4.2 9.3 9.3 9.3v-7c-1.4.1-2.4-.9-2.4-2.2zm-26.9-9v10.3c0 .6-.5 1.1-1.1 1.1-.6 0-1.1-.5-1.1-1.1V7.9h-7V20c0 2.2.7 4.9 4.1 5.8 3.4.9 5.3-1 5.3-1-.2 1.2-1.3 2.1-3.2 2.3-1.4.1-3.2-.3-4.1-.7v6.4c2.3.7 4.7.9 7.1.4 4.3-.8 7-4.4 7-9.2V7.9h-7z" fill-rule="evenodd" clip-rule="evenodd"/>
</svg>
