<svg xmlns="http://www.w3.org/2000/svg" version="1.1" x="0" y="0" viewBox="0 0 106 32" xml:space="preserve">
  <path d="M25.6 14.2c-5.1-3-13.4-3.3-18.2-1.8-.8.2-1.6-.2-1.8-1-.2-.8.2-1.6 1-1.8 5.5-1.7 14.8-1.4 20.6 2.1.7.4.9 1.3.5 2-.5.7-1.4.9-2.1.5zm-.1 4.5c-.4.6-1.1.8-1.7.4-4.2-2.6-10.7-3.3-15.6-1.8-.6.2-1.3-.2-1.5-.8-.2-.6.2-1.3.8-1.5 5.7-1.7 12.8-.9 17.6 2.1.6.2.7 1 .4 1.6zm-1.9 4.2c-.3.5-.9.6-1.3.3-3.7-2.3-8.3-2.8-13.8-1.5-.5.1-1.1-.2-1.2-.7-.2-.5.2-1 .7-1.2 6-1.4 11.1-.8 15.2 1.7.5.4.6 1 .4 1.4zM16.4.3C7.7.3.7 7.3.7 16s7 15.7 15.7 15.7 15.7-7 15.7-15.7S25 .3 16.4.3zm27 14.5c-2.7-.6-3.2-1.1-3.2-2.1 0-.9.8-1.5 2.1-1.5 1.2 0 2.4.5 3.7 1.4h.1s.1 0 .1-.1l1.3-1.9c.1-.1 0-.2 0-.2-1.5-1.2-3.2-1.8-5.2-1.8-2.9 0-5 1.8-5 4.3 0 2.7 1.8 3.6 4.8 4.4 2.6.6 3 1.1 3 2 0 1-.9 1.6-2.3 1.6-1.6 0-2.9-.5-4.3-1.8h-.1s-.1 0-.1.1L36.8 21c-.1.1-.1.2 0 .2 1.7 1.5 3.7 2.3 6 2.3 3.2 0 5.2-1.7 5.2-4.4 0-2.3-1.3-3.5-4.6-4.3zM54.6 21c1.7 0 2.9-1.3 2.9-3.2 0-1.9-1.2-3.2-2.9-3.2s-2.9 1.4-2.9 3.2c0 1.9 1.2 3.2 2.9 3.2zm-2.9-7.2c.9-1.1 2-1.6 3.4-1.6 2.5 0 5.1 2 5.1 5.7s-2.6 5.7-5.1 5.7c-1.4 0-2.5-.5-3.4-1.5v4.4c0 .1-.1.2-.2.2h-2.4c-.1 0-.2-.1-.2-.2v-14c0-.1.1-.2.2-.2h2.4c.1 0 .2.1.2.2v1.3zm15.2 7.3c-1.7 0-3.1-1.4-3.1-3.3s1.3-3.2 3-3.2c1.8 0 3.1 1.4 3.1 3.3 0 1.8-1.3 3.2-3 3.2zm0-9c-3.3 0-5.8 2.5-5.8 5.7s2.5 5.7 5.8 5.7 5.9-2.5 5.9-5.7c-.1-3.2-2.7-5.7-5.9-5.7zm10.1.2h2.7c.1 0 .2.1.2.2v2.1c0 .1-.1.2-.2.2H77v5c0 .8.3 1.1 1.1 1.1.5 0 1-.1 1.4-.3h.2c.1 0 .1.1.1.2v2c0 .1 0 .1-.1.2-.7.4-1.4.6-2.3.6-2.1 0-3.2-1.1-3.2-3.3v-5.4H73c-.1 0-.2-.1-.2-.2v-2.1c0-.1.1-.2.2-.2h1.2V9.6c0-.1.1-.2.2-.2h2.4c.1 0 .2.1.2.2v2.7zm12 .1V12c0-1 .4-1.4 1.2-1.4.5 0 .9.1 1.4.3h.2l.1-.1v-2c0-.1-.1-.1-.1-.2-.5-.1-1.1-.3-2-.3-2.2 0-3.4 1.3-3.4 3.6v.5H85c-.1 0-.2.1-.2.2v2.1c0 .1.1.2.2.2h1.2v8.3c0 .1.1.2.2.2h2.4c.1 0 .2-.1.2-.2v-8.3h2.3l3.5 8.3c-.4.9-.8 1-1.3 1-.4 0-.9-.1-1.3-.4h-.1l-.1.1-1 1.8c0 .1 0 .2.1.2.9.5 1.6.7 2.6.7 1.8 0 2.8-.8 3.7-3.1l4.2-10.9v-.2l-.1-.1H99c-.1 0-.1 0-.2.1l-2.6 7.4-2.8-7.4c0-.1-.1-.1-.2-.1H89zm-7.9-.1h2.4c.1 0 .2.1.2.2v10.6c0 .1-.1.2-.2.2h-2.4c-.1 0-.2-.1-.2-.2V12.5c.1-.1.1-.2.2-.2zm1.3-4.8c-1 0-1.7.8-1.7 1.7 0 1 .8 1.7 1.7 1.7 1 0 1.7-.8 1.7-1.7 0-.9-.8-1.7-1.7-1.7zm20.9 5.9h.4c.2 0 .4.1.4.3 0 .2-.1.3-.4.3h-.4v-.6zm1.2 1.5l-.5-.7c.2-.1.4-.3.4-.5 0-.4-.3-.6-.7-.6h-.8v1.8h.3v-.6h.4l.4.6h.5zm-2.4-.9c0-.9.7-1.5 1.5-1.5.9 0 1.5.7 1.5 1.5 0 .9-.7 1.5-1.5 1.5-.9.1-1.5-.6-1.5-1.5zm-.2 0c0 .9.7 1.7 1.7 1.7s1.7-.8 1.7-1.7c0-.9-.7-1.7-1.7-1.7-.9 0-1.7.8-1.7 1.7z" fill-rule="evenodd" clip-rule="evenodd"/>
</svg>
