<svg xmlns="http://www.w3.org/2000/svg" version="1.1" x="0" y="0" viewBox="0 0 133 26" xml:space="preserve">
  <path d="M7.7 9.8l7.7-4.9L23 9.7l-7.7 4.9 7.6 4.9 7.7-4.9L23 9.8l7.7-4.9L23 0l-7.6 4.9L7.7 0 0 4.9l7.7 4.9L0 14.6l7.7 4.9 7.7-4.9-7.7-4.8zm7.6 6.4l-7.7 4.9 7.7 4.9 7.7-4.9-7.7-4.9zM42.8 4.9h-6.2v16.2h6.3c4 0 7.1-2.4 7.1-7.6v-1.1c0-5.2-3.2-7.5-7.2-7.5zm-2.7 13.2V7.8h2.5c2.3 0 3.9 1.5 3.9 4.7v.9c0 3.3-1.5 4.7-3.7 4.7h-2.7zM54.6 8h-2.7v13.2h3.4v-6c0-2.8.7-3.7 3.5-3.7h1.4V7.9h-.9C57 7.9 55.6 9 55.1 11l-.5-3zm6.3 6.5v.4c0 4.3 2.4 6.6 6.6 6.6 4 0 6.6-2.3 6.6-6.6v-.4c0-4.4-2.7-6.8-6.6-6.8-3.7 0-6.6 2.4-6.6 6.8zm9.8 0v.3c0 2.4-1.2 3.7-3.2 3.7s-3.2-1.3-3.2-3.7v-.3c0-2.6 1.3-3.9 3.2-3.9 2 0 3.2 1.4 3.2 3.9zM78.9 8H76v17.7h3.3V19c.7 1.5 2.1 2.4 4.2 2.4 3.1 0 5.5-2.3 5.5-6.6v-.4c0-4.4-2.2-6.8-5.5-6.8-2.2 0-3.6 1.1-4.3 2.8L78.9 8zm6.7 6.5v.3c0 2.4-1.2 3.7-3.2 3.7-1.9 0-3.1-1.5-3.1-3.8v-.2c0-2.4 1.3-3.9 3.2-3.9 1.8 0 3.1 1.3 3.1 3.9zm8.2 6.6l.3-2.4c.7 1.7 2.1 2.7 4.3 2.8 3.3 0 5.5-2.5 5.5-6.8v-.4c0-4.4-2.3-6.5-5.5-6.6-2.1 0-3.5.9-4.3 2.6V3.6h-3.3v17.5h3zm3.5-10.5c1.8 0 3.1 1.3 3.1 3.7v.3c0 2.6-1.2 3.9-3.2 3.9-1.9 0-3.1-1.4-3.1-3.9v-.3c.1-2.2 1.4-3.7 3.2-3.7zm8.1 3.9v.4c0 4.3 2.4 6.6 6.6 6.6 4 0 6.6-2.3 6.6-6.6v-.4c0-4.4-2.7-6.8-6.6-6.8-3.7 0-6.6 2.4-6.6 6.8zm9.9 0v.3c0 2.4-1.2 3.7-3.2 3.7s-3.2-1.3-3.2-3.7v-.3c0-2.6 1.3-3.9 3.2-3.9 1.9 0 3.2 1.4 3.2 3.9zm3.3-6.5l4.6 6.3-5 6.8h4l2.9-4.4 3 4.4h3.9l-4.9-6.8 4.7-6.3h-3.9l-2.7 4-2.6-4h-4z" fill-rule="evenodd" clip-rule="evenodd"/>
</svg>
