<svg xmlns="http://www.w3.org/2000/svg" viewBox="0 0 250 82.16">
  <g data-name="Layer 2">
    <path d="M107 43.21a20.68 20.68 0 01-41.36 0 20.68 20.68 0 0141.36 0zm-9.09 0c0-7.42-5.38-12.42-11.59-12.42s-11.59 5-11.59 12.42 5.38 12.43 11.59 12.43 11.6-5.1 11.6-12.43zm53.6 0a20.59 20.59 0 11-41.17 0 20.59 20.59 0 0141.17 0zm-9.09 0c0-7.42-5.38-12.42-11.59-12.42s-11.59 5-11.59 12.42 5.38 12.43 11.59 12.43 11.6-5.1 11.6-12.43zm51.75-19.38v36.91c0 15.21-9 21.42-19.57 21.42A19.66 19.66 0 01156.34 70l7.88-3.24c1.4 3.33 4.83 7.32 10.39 7.32 6.77 0 10.94-4.17 10.94-12.05v-3h-.28a14 14 0 01-10.84 4.64c-10.3 0-19.66-9-19.66-20.5s9.45-20.68 19.66-20.68a14.34 14.34 0 0110.84 4.64h.28v-3.3zm-8 19.47c0-7.23-4.82-12.51-10.94-12.51s-11.5 5.28-11.5 12.51 5.19 12.43 11.5 12.43c6.15-.09 10.97-5.28 10.97-12.43zm22.1-41.07V62.5h-8.81V2.23zM242.58 50l7 4.64a20.42 20.42 0 01-17.16 9.09c-11.68 0-20.4-9-20.4-20.59 0-12.15 8.81-20.49 19.38-20.49s15.86 8.53 17.62 13.07L250 38l-27.45 11.43a10.43 10.43 0 0010 6.21c4.54 0 7.69-2.23 10-5.66zM221 42.56L239.34 35c-1-2.6-4.08-4.36-7.61-4.36A11.29 11.29 0 00221 42.56zM32.36 37.83v-8.71h29.4a29.31 29.31 0 01.46 5.28c0 6.59-1.76 14.65-7.6 20.4-5.57 5.85-12.8 9-22.26 9C14.74 63.8 0 49.43 0 31.9S14.84 0 32.36 0a30.3 30.3 0 0121.89 8.81l-6.12 6.12a22.16 22.16 0 00-15.77-6.21A22.89 22.89 0 009.46 31.9a22.89 22.89 0 0022.9 23.18c8.35 0 13.08-3.34 16.14-6.4 2.5-2.5 4.08-6 4.73-10.85z" data-name="Livello 1"/>
  </g>
</svg>
