<svg xmlns="http://www.w3.org/2000/svg" data-name="Layer 1" viewBox="0 0 216 60.51">
  <path d="M130.13 12.12h6.67v36.94h-6.67zm24.7 36.94h-6.68V21.63h6.68zm22.03-7.44c-2.21 4.28-4 7.55-4 7.55h-6.94L173 35.23l-8.23-13.54H172l4.25 7.06 3.56-7.06H187s-3.4 6.8-6.88 13.62l8.33 13.86h-6.94zM55.06 37.2V21.63h6.32c.13 5.07-.08 10.83 0 15.63a6.1 6.1 0 005.94 6.15 5.77 5.77 0 006-5.76v-16h6.41c0 8.11-.08 9.72 0 15.8a12.29 12.29 0 11-24.58-.23m50.45-16.29a14.54 14.54 0 110 29.08c-8 0-14.62-7-14.62-15v-22.9h6.67v11.53a14.2 14.2 0 017.95-2.71zm0 22.25a7.69 7.69 0 10-7.69-7.69 7.69 7.69 0 007.64 7.69zM30.46 11a14.55 14.55 0 11-7.84 27v11.15h-6.69V25.32A14.31 14.31 0 0130.46 11zm0 22.22a7.66 7.66 0 10-7.65-7.65 7.65 7.65 0 007.64 7.69zM151.8 18.75a4.13 4.13 0 10-4.13-4.12 4.12 4.12 0 004.13 4.12zm45 23.87a3.26 3.26 0 11-3.26 3.26 3.27 3.27 0 013.26-3.26zm0 6.05a2.79 2.79 0 10-2.8-2.79 2.79 2.79 0 002.8 2.79zm-.71-.92h-.47V44h1.45c.85 0 1.18.37 1.18 1.05a1 1 0 01-.94 1.07l1.12 1.65h-.54l-1.12-1.65h-.68zm0-2.07h.61c.52 0 1.08 0 1.08-.65s-.44-.62-.84-.62h-.85z"/>
</svg>
