<svg xmlns="http://www.w3.org/2000/svg" fill="none" viewBox="0 0 710 182">
  <path fill-rule="evenodd" clip-rule="evenodd" d="M0 70.85v70.85l5.794 5.039C26.246 164.528 48.187 174.406 80 180.147c11.506 2.076 57.008 1.796 73-.45 16.256-2.283 39.188-6.963 55.5-11.327 7.15-1.913 16.375-4.383 20.5-5.489 14.591-3.912 58.008-18.922 97.732-33.789 60.664-22.703 78.83-28.249 93.268-28.475 17.178-.268 20.561 8.804 11.604 31.112-1.923 4.791-3.409 8.788-3.301 8.882.108.095 63.422-31.479 140.697-70.164L709.5.11 354.75.055 0 0v70.85z" fill="#000"/>
</svg>
