<svg xmlns="http://www.w3.org/2000/svg" version="1.1" x="0" y="0" viewBox="0 0 2500 326" xml:space="preserve">
  <path d="M2135.8 129.4v196.4h62.8v-131h229.6v131h62.8V129.4h-355.2m55.6-63.7h242.2c34.1-6.3 58.3-36.8 65.5-65.5h-373.2c7.2 28.7 32.3 58.3 65.5 65.5m-246.7 260.1c31.4-13.5 48.4-36.8 55.6-63.7h-282.6V1.1H1654v324.7h290.7m-761.5-261h224.3c34.1-9.9 61.9-35.9 69.1-63.7h-355.2v192H1412v67.3h-227.8c-35.9 9.9-66.4 34.1-81.6 65.5h372.3V129.4h-290.6l-1.1-64.6m-552.6.9h242.2C906.9 59.4 932 28.9 938.3.2H564.2c7.2 28.7 32.3 58.3 66.4 65.5m0 128.2h242.2c34.1-6.3 59.2-36.8 65.5-65.5H564.2c7.2 28.8 32.3 58.4 66.4 65.5m0 131.9h242.2c34.1-6.3 59.2-36.8 65.5-65.5H564.2c7.2 28.7 32.3 59.2 66.4 65.5M0 1.1c7.2 28.7 32.3 57.4 65.5 64.6h102.3l5.4 1.8v257.4h63.7V67.5l5.4-1.8h102.3c34.1-9 58.3-35.9 65.5-64.6V.2L0 1.1"/>
</svg>
